<mxfile host="app.diagrams.net" modified="2024-01-24T06:30:40.148Z" agent="Mozilla/5.0 (Windows NT 10.0; Win64; x64) AppleWebKit/537.36 (KHTML, like Gecko) Chrome/120.0.0.0 Safari/537.36" etag="4wcDnWSQZrrFH5D387ga" version="23.0.0" type="device">
  <diagram name="Page-1" id="fc2ac565-0d4e-3f0d-88b0-a54af1634ed7">
    <mxGraphModel dx="1245" dy="1053" grid="1" gridSize="10" guides="1" tooltips="1" connect="0" arrows="1" fold="1" page="1" pageScale="1.5" pageWidth="1169" pageHeight="827" background="none" math="0" shadow="0">
      <root>
        <mxCell id="0" style=";html=1;" />
        <mxCell id="1" style=";html=1;" parent="0" />
        <mxCell id="4j_LOv_7RKqF5dBRp_pr-147" value="" style="group" parent="1" vertex="1" connectable="0">
          <mxGeometry x="50" y="380" width="1130" height="372" as="geometry" />
        </mxCell>
        <mxCell id="4j_LOv_7RKqF5dBRp_pr-145" value="" style="rounded=0;whiteSpace=wrap;html=1;strokeColor=none;fillColor=#FFFFFF;" parent="4j_LOv_7RKqF5dBRp_pr-147" vertex="1">
          <mxGeometry x="2" width="1128" height="372" as="geometry" />
        </mxCell>
        <mxCell id="75" value="&lt;font style=&quot;font-size: 15px;&quot;&gt;&lt;b&gt;Requirement Gathering&lt;/b&gt;&lt;/font&gt;" style="align=left;strokeColor=#FFFFFF;html=1;fillColor=#ffcc99;spacingLeft=16;" parent="4j_LOv_7RKqF5dBRp_pr-147" vertex="1">
          <mxGeometry x="17" y="25" width="1093" height="50" as="geometry" />
        </mxCell>
        <mxCell id="4j_LOv_7RKqF5dBRp_pr-104" value="&lt;font style=&quot;font-size: 15px;&quot;&gt;&lt;b&gt;Analysis&lt;/b&gt;&lt;/font&gt;" style="align=left;strokeColor=#FFFFFF;html=1;fillColor=#A3C8FF;spacingLeft=16;" parent="4j_LOv_7RKqF5dBRp_pr-147" vertex="1">
          <mxGeometry x="17" y="75" width="1093" height="50" as="geometry" />
        </mxCell>
        <mxCell id="4j_LOv_7RKqF5dBRp_pr-108" value="&lt;font style=&quot;font-size: 15px;&quot;&gt;&lt;b&gt;Design&lt;/b&gt;&lt;/font&gt;" style="align=left;strokeColor=#FFFFFF;html=1;fillColor=#ffcc99;spacingLeft=16;" parent="4j_LOv_7RKqF5dBRp_pr-147" vertex="1">
          <mxGeometry x="17" y="125" width="1093" height="50" as="geometry" />
        </mxCell>
        <mxCell id="4j_LOv_7RKqF5dBRp_pr-111" value="&lt;font style=&quot;font-size: 15px;&quot;&gt;&lt;b&gt;Coding&lt;/b&gt;&lt;/font&gt;" style="align=left;strokeColor=#FFFFFF;html=1;fillColor=#A3C8FF;spacingLeft=16;" parent="4j_LOv_7RKqF5dBRp_pr-147" vertex="1">
          <mxGeometry x="17" y="175" width="1093" height="50" as="geometry" />
        </mxCell>
        <mxCell id="4j_LOv_7RKqF5dBRp_pr-115" value="&lt;font style=&quot;font-size: 15px;&quot;&gt;&lt;b&gt;Testing&lt;/b&gt;&lt;/font&gt;" style="align=left;strokeColor=#FFFFFF;html=1;fillColor=#ffcc99;spacingLeft=16;" parent="4j_LOv_7RKqF5dBRp_pr-147" vertex="1">
          <mxGeometry x="17" y="225" width="1093" height="50" as="geometry" />
        </mxCell>
        <mxCell id="4j_LOv_7RKqF5dBRp_pr-118" value="&lt;font style=&quot;font-size: 15px;&quot;&gt;&lt;b&gt;Documentation&lt;/b&gt;&lt;/font&gt;" style="align=left;strokeColor=#FFFFFF;html=1;fillColor=#A3C8FF;spacingLeft=16;" parent="4j_LOv_7RKqF5dBRp_pr-147" vertex="1">
          <mxGeometry x="17" y="275" width="1093" height="50" as="geometry" />
        </mxCell>
        <mxCell id="4j_LOv_7RKqF5dBRp_pr-135" value="" style="rounded=0;whiteSpace=wrap;html=1;strokeColor=none;opacity=50;fillColor=default;" parent="4j_LOv_7RKqF5dBRp_pr-147" vertex="1">
          <mxGeometry x="219" y="25" width="891" height="300" as="geometry" />
        </mxCell>
        <mxCell id="4j_LOv_7RKqF5dBRp_pr-120" value="" style="endArrow=none;html=1;rounded=1;curved=0;strokeColor=#FFFFFF;strokeWidth=2;" parent="4j_LOv_7RKqF5dBRp_pr-147" edge="1">
          <mxGeometry width="50" height="50" relative="1" as="geometry">
            <mxPoint x="219" y="25" as="sourcePoint" />
            <mxPoint x="219" y="325" as="targetPoint" />
          </mxGeometry>
        </mxCell>
        <mxCell id="4j_LOv_7RKqF5dBRp_pr-121" value="" style="endArrow=none;html=1;rounded=1;strokeColor=#FFFFFF;strokeWidth=1.25;curved=0;" parent="4j_LOv_7RKqF5dBRp_pr-147" edge="1">
          <mxGeometry width="50" height="50" relative="1" as="geometry">
            <mxPoint x="292" y="325" as="sourcePoint" />
            <mxPoint x="292" y="25" as="targetPoint" />
          </mxGeometry>
        </mxCell>
        <mxCell id="4j_LOv_7RKqF5dBRp_pr-122" value="" style="endArrow=none;html=1;rounded=1;strokeColor=#FFFFFF;strokeWidth=1.25;curved=0;" parent="4j_LOv_7RKqF5dBRp_pr-147" edge="1">
          <mxGeometry width="50" height="50" relative="1" as="geometry">
            <mxPoint x="386" y="325" as="sourcePoint" />
            <mxPoint x="386" y="25" as="targetPoint" />
          </mxGeometry>
        </mxCell>
        <mxCell id="4j_LOv_7RKqF5dBRp_pr-123" value="" style="endArrow=none;html=1;rounded=1;strokeColor=#FFFFFF;strokeWidth=1.25;curved=0;" parent="4j_LOv_7RKqF5dBRp_pr-147" edge="1">
          <mxGeometry width="50" height="50" relative="1" as="geometry">
            <mxPoint x="568" y="325" as="sourcePoint" />
            <mxPoint x="565" y="25" as="targetPoint" />
          </mxGeometry>
        </mxCell>
        <mxCell id="4j_LOv_7RKqF5dBRp_pr-124" value="" style="endArrow=none;html=1;rounded=1;strokeColor=#FFFFFF;strokeWidth=1.25;curved=0;" parent="4j_LOv_7RKqF5dBRp_pr-147" edge="1">
          <mxGeometry width="50" height="50" relative="1" as="geometry">
            <mxPoint x="661" y="325" as="sourcePoint" />
            <mxPoint x="658" y="25" as="targetPoint" />
          </mxGeometry>
        </mxCell>
        <mxCell id="4j_LOv_7RKqF5dBRp_pr-125" value="" style="endArrow=none;html=1;rounded=1;strokeColor=#FFFFFF;strokeWidth=1.25;curved=0;" parent="4j_LOv_7RKqF5dBRp_pr-147" edge="1">
          <mxGeometry width="50" height="50" relative="1" as="geometry">
            <mxPoint x="747" y="324" as="sourcePoint" />
            <mxPoint x="744" y="24" as="targetPoint" />
          </mxGeometry>
        </mxCell>
        <mxCell id="4j_LOv_7RKqF5dBRp_pr-126" value="" style="endArrow=none;html=1;rounded=1;strokeColor=#FFFFFF;strokeWidth=1.25;curved=0;" parent="4j_LOv_7RKqF5dBRp_pr-147" edge="1" source="4j_LOv_7RKqF5dBRp_pr-135">
          <mxGeometry width="50" height="50" relative="1" as="geometry">
            <mxPoint x="838" y="325" as="sourcePoint" />
            <mxPoint x="835" y="25" as="targetPoint" />
          </mxGeometry>
        </mxCell>
        <mxCell id="4j_LOv_7RKqF5dBRp_pr-127" value="" style="endArrow=none;html=1;rounded=1;strokeColor=#FFFFFF;strokeWidth=1.25;curved=0;" parent="4j_LOv_7RKqF5dBRp_pr-147" edge="1">
          <mxGeometry width="50" height="50" relative="1" as="geometry">
            <mxPoint x="928" y="325" as="sourcePoint" />
            <mxPoint x="925" y="25" as="targetPoint" />
          </mxGeometry>
        </mxCell>
        <mxCell id="4j_LOv_7RKqF5dBRp_pr-128" value="2023-12-10" style="text;html=1;strokeColor=none;fillColor=none;align=center;verticalAlign=middle;whiteSpace=wrap;rounded=0;fontStyle=1;fontSize=13;labelBorderColor=none;" parent="4j_LOv_7RKqF5dBRp_pr-147" vertex="1">
          <mxGeometry x="258" y="333" width="70" height="30" as="geometry" />
        </mxCell>
        <mxCell id="4j_LOv_7RKqF5dBRp_pr-129" value="2023-12-17" style="text;html=1;strokeColor=none;fillColor=none;align=center;verticalAlign=middle;whiteSpace=wrap;rounded=0;fontStyle=1;fontSize=13;labelBorderColor=none;" parent="4j_LOv_7RKqF5dBRp_pr-147" vertex="1">
          <mxGeometry x="348" y="333" width="70" height="30" as="geometry" />
        </mxCell>
        <mxCell id="4j_LOv_7RKqF5dBRp_pr-130" value="2023-12-24" style="text;html=1;strokeColor=none;fillColor=none;align=center;verticalAlign=middle;whiteSpace=wrap;rounded=0;fontStyle=1;fontSize=13;labelBorderColor=none;" parent="4j_LOv_7RKqF5dBRp_pr-147" vertex="1">
          <mxGeometry x="440" y="333" width="70" height="30" as="geometry" />
        </mxCell>
        <mxCell id="4j_LOv_7RKqF5dBRp_pr-131" value="2023-12-31" style="text;html=1;strokeColor=none;fillColor=none;align=center;verticalAlign=middle;whiteSpace=wrap;rounded=0;fontStyle=1;fontSize=13;labelBorderColor=none;" parent="4j_LOv_7RKqF5dBRp_pr-147" vertex="1">
          <mxGeometry x="533" y="333" width="70" height="30" as="geometry" />
        </mxCell>
        <mxCell id="4j_LOv_7RKqF5dBRp_pr-132" value="2024-01-07" style="text;html=1;strokeColor=none;fillColor=none;align=center;verticalAlign=middle;whiteSpace=wrap;rounded=0;fontStyle=1;fontSize=13;labelBorderColor=none;" parent="4j_LOv_7RKqF5dBRp_pr-147" vertex="1">
          <mxGeometry x="615" y="333" width="70" height="30" as="geometry" />
        </mxCell>
        <mxCell id="4j_LOv_7RKqF5dBRp_pr-133" value="2024-01-21" style="text;html=1;strokeColor=none;fillColor=none;align=center;verticalAlign=middle;whiteSpace=wrap;rounded=0;fontStyle=1;fontSize=13;labelBorderColor=none;" parent="4j_LOv_7RKqF5dBRp_pr-147" vertex="1">
          <mxGeometry x="804" y="333" width="70" height="30" as="geometry" />
        </mxCell>
        <mxCell id="4j_LOv_7RKqF5dBRp_pr-134" value="2024-02-04" style="text;html=1;strokeColor=none;fillColor=none;align=center;verticalAlign=middle;whiteSpace=wrap;rounded=0;fontStyle=1;fontSize=13;labelBorderColor=none;" parent="4j_LOv_7RKqF5dBRp_pr-147" vertex="1">
          <mxGeometry x="988" y="333" width="70" height="30" as="geometry" />
        </mxCell>
        <mxCell id="4j_LOv_7RKqF5dBRp_pr-105" value="" style="whiteSpace=wrap;html=1;strokeWidth=2;fillColor=#0050ef;fontSize=14;align=center;strokeColor=none;fontColor=#ffffff;rounded=1;arcSize=50;" parent="4j_LOv_7RKqF5dBRp_pr-147" vertex="1">
          <mxGeometry x="297.5" y="83" width="142.5" height="34" as="geometry" />
        </mxCell>
        <mxCell id="Kf92kxm3ZxzgXJgW7nDv-80" value="" style="endArrow=none;html=1;rounded=1;strokeColor=#FFFFFF;strokeWidth=1.25;curved=0;" parent="4j_LOv_7RKqF5dBRp_pr-147" edge="1">
          <mxGeometry width="50" height="50" relative="1" as="geometry">
            <mxPoint x="477" y="322" as="sourcePoint" />
            <mxPoint x="474" y="22" as="targetPoint" />
          </mxGeometry>
        </mxCell>
        <mxCell id="4j_LOv_7RKqF5dBRp_pr-106" value="" style="whiteSpace=wrap;html=1;strokeWidth=2;fillColor=#0050ef;fontSize=14;align=center;strokeColor=none;fontColor=#ffffff;rounded=1;arcSize=50;" parent="4j_LOv_7RKqF5dBRp_pr-147" vertex="1">
          <mxGeometry x="219" y="33" width="81" height="34" as="geometry" />
        </mxCell>
        <mxCell id="4j_LOv_7RKqF5dBRp_pr-109" value="" style="whiteSpace=wrap;html=1;strokeWidth=2;fillColor=#0050ef;fontSize=14;align=center;strokeColor=none;fontColor=#ffffff;rounded=1;arcSize=50;" parent="4j_LOv_7RKqF5dBRp_pr-147" vertex="1">
          <mxGeometry x="440" y="133" width="467" height="34" as="geometry" />
        </mxCell>
        <mxCell id="Kf92kxm3ZxzgXJgW7nDv-81" value="" style="endArrow=none;html=1;rounded=1;strokeColor=#FFFFFF;strokeWidth=1.25;curved=0;" parent="4j_LOv_7RKqF5dBRp_pr-147" edge="1">
          <mxGeometry width="50" height="50" relative="1" as="geometry">
            <mxPoint x="1024" y="325" as="sourcePoint" />
            <mxPoint x="1021" y="25" as="targetPoint" />
          </mxGeometry>
        </mxCell>
        <mxCell id="4j_LOv_7RKqF5dBRp_pr-112" value="" style="whiteSpace=wrap;html=1;strokeWidth=2;fillColor=#0050ef;fontSize=14;align=center;strokeColor=none;fontColor=#ffffff;rounded=1;arcSize=50;" parent="4j_LOv_7RKqF5dBRp_pr-147" vertex="1">
          <mxGeometry x="450" y="183" width="545" height="34" as="geometry" />
        </mxCell>
        <mxCell id="4j_LOv_7RKqF5dBRp_pr-116" value="" style="whiteSpace=wrap;html=1;strokeWidth=2;fillColor=#0050ef;fontSize=14;align=center;strokeColor=none;fontColor=#ffffff;rounded=1;arcSize=50;" parent="4j_LOv_7RKqF5dBRp_pr-147" vertex="1">
          <mxGeometry x="940" y="233" width="93" height="34" as="geometry" />
        </mxCell>
        <mxCell id="4j_LOv_7RKqF5dBRp_pr-119" value="" style="whiteSpace=wrap;html=1;strokeWidth=2;fillColor=#0050ef;fontSize=14;align=center;strokeColor=none;fontColor=#ffffff;rounded=1;arcSize=50;" parent="4j_LOv_7RKqF5dBRp_pr-147" vertex="1">
          <mxGeometry x="220" y="283" width="840" height="34" as="geometry" />
        </mxCell>
        <mxCell id="4j_LOv_7RKqF5dBRp_pr-139" value="6 Days" style="text;html=1;strokeColor=none;fillColor=none;align=center;verticalAlign=middle;whiteSpace=wrap;rounded=0;fontColor=#FFFFFF;fontStyle=1" parent="4j_LOv_7RKqF5dBRp_pr-147" vertex="1">
          <mxGeometry x="229.5" y="35" width="60" height="30" as="geometry" />
        </mxCell>
        <mxCell id="4j_LOv_7RKqF5dBRp_pr-140" value="11 Days" style="text;html=1;strokeColor=none;fillColor=none;align=center;verticalAlign=middle;whiteSpace=wrap;rounded=0;fontColor=#FFFFFF;fontStyle=1" parent="4j_LOv_7RKqF5dBRp_pr-147" vertex="1">
          <mxGeometry x="339" y="85" width="60" height="30" as="geometry" />
        </mxCell>
        <mxCell id="4j_LOv_7RKqF5dBRp_pr-141" value="36 Days" style="text;html=1;strokeColor=none;fillColor=none;align=center;verticalAlign=middle;whiteSpace=wrap;rounded=0;fontColor=#FFFFFF;fontStyle=1" parent="4j_LOv_7RKqF5dBRp_pr-147" vertex="1">
          <mxGeometry x="649" y="134" width="60" height="30" as="geometry" />
        </mxCell>
        <mxCell id="4j_LOv_7RKqF5dBRp_pr-142" value="42 Days" style="text;html=1;strokeColor=none;fillColor=none;align=center;verticalAlign=middle;whiteSpace=wrap;rounded=0;fontColor=#FFFFFF;fontStyle=1" parent="4j_LOv_7RKqF5dBRp_pr-147" vertex="1">
          <mxGeometry x="685" y="185" width="60" height="30" as="geometry" />
        </mxCell>
        <mxCell id="4j_LOv_7RKqF5dBRp_pr-143" value="7 Days" style="text;html=1;strokeColor=none;fillColor=none;align=center;verticalAlign=middle;whiteSpace=wrap;rounded=0;fontColor=#FFFFFF;fontStyle=1" parent="4j_LOv_7RKqF5dBRp_pr-147" vertex="1">
          <mxGeometry x="956.5" y="235" width="60" height="30" as="geometry" />
        </mxCell>
        <mxCell id="4j_LOv_7RKqF5dBRp_pr-144" value="65 Days" style="text;html=1;strokeColor=none;fillColor=none;align=center;verticalAlign=middle;whiteSpace=wrap;rounded=0;fontColor=#FFFFFF;fontStyle=1" parent="4j_LOv_7RKqF5dBRp_pr-147" vertex="1">
          <mxGeometry x="603" y="284" width="60" height="30" as="geometry" />
        </mxCell>
        <mxCell id="r-sYJYUAovYb1423-9eG-82" value="2024-01-14" style="text;html=1;strokeColor=none;fillColor=none;align=center;verticalAlign=middle;whiteSpace=wrap;rounded=0;fontStyle=1;fontSize=13;labelBorderColor=none;" vertex="1" parent="4j_LOv_7RKqF5dBRp_pr-147">
          <mxGeometry x="709" y="333" width="70" height="30" as="geometry" />
        </mxCell>
        <mxCell id="r-sYJYUAovYb1423-9eG-83" value="2024-01-28" style="text;html=1;strokeColor=none;fillColor=none;align=center;verticalAlign=middle;whiteSpace=wrap;rounded=0;fontStyle=1;fontSize=13;labelBorderColor=none;" vertex="1" parent="4j_LOv_7RKqF5dBRp_pr-147">
          <mxGeometry x="898" y="333" width="70" height="30" as="geometry" />
        </mxCell>
        <mxCell id="r-sYJYUAovYb1423-9eG-87" value="" style="endArrow=none;html=1;rounded=1;strokeColor=#FFFFFF;strokeWidth=1.25;curved=0;" edge="1" parent="4j_LOv_7RKqF5dBRp_pr-147" target="4j_LOv_7RKqF5dBRp_pr-135">
          <mxGeometry width="50" height="50" relative="1" as="geometry">
            <mxPoint x="900" y="759" as="sourcePoint" />
            <mxPoint x="897" y="459" as="targetPoint" />
          </mxGeometry>
        </mxCell>
      </root>
    </mxGraphModel>
  </diagram>
</mxfile>
